<?xml version="1.0" standalone="no"?>
<!DOCTYPE svg PUBLIC "-//W3C//DTD SVG 20010904//EN"
 "http://www.w3.org/TR/2001/REC-SVG-20010904/DTD/svg10.dtd">
<svg version="1.0" xmlns="http://www.w3.org/2000/svg" width="1820px" height="664px" viewBox="0 0 1820 664" preserveAspectRatio="xMidYMid meet">
  <g transform="translate(0,664) scale(0.1,-0.1)" fill="#000000" stroke="none">
    <path fill="#B11289" d="M3137 6434 c-577 -104 -812 -819 -410 -1245 249 -263 623 -314 941
-128 92 55 210 180 261 279 65 124 82 187 88 325 5 102 2 133 -16 205 -76 301
-299 511 -601 566 -93 17 -163 16 -263 -2z m235 -275 c83 -18 154 -56 224
-121 242 -226 179 -617 -123 -765 -77 -38 -79 -38 -198 -38 -118 0 -121 1
-198 37 -193 93 -303 297 -269 500 46 269 299 443 564 387z"/>
    <path d="M7342 5018 l3 -533 73 -3 72 -3 0 291 0 290 46 29 c86 55 189 48 231
-15 16 -25 19 -59 23 -309 l5 -280 73 -3 74 -3 -4 304 -3 303 -30 59 c-23 46
-40 64 -75 83 -40 21 -55 23 -130 20 -85 -4 -147 -25 -192 -66 -17 -14 -18 -6
-18 157 0 100 -4 180 -10 192 -9 16 -22 19 -75 19 l-65 0 2 -532z"/>
    <path d="M10594 5536 c-3 -8 -4 -223 -2 -478 3 -421 5 -467 22 -505 29 -67 83
-91 182 -78 l54 6 0 50 c0 51 0 51 -65 61 -43 7 -45 29 -45 499 0 504 9 459
-86 459 -38 0 -56 -4 -60 -14z"/>
    <path d="M13360 5027 c0 -393 3 -526 12 -535 7 -7 39 -12 75 -12 l63 0 0 283
c0 281 0 284 23 304 82 75 215 80 257 10 18 -30 20 -52 20 -302 0 -198 3 -274
12 -283 7 -7 39 -12 75 -12 l63 0 0 293 c0 302 -4 340 -43 398 -63 95 -253
108 -363 24 -18 -14 -35 -25 -38 -25 -3 0 -6 83 -6 184 0 209 6 196 -91 196
l-59 0 0 -523z"/>
    <path d="M15604 5536 c-3 -8 -4 -223 -2 -478 4 -500 4 -506 58 -556 27 -25 93
-37 155 -28 l45 7 0 49 c0 50 -9 60 -55 60 -50 0 -50 0 -53 489 -2 343 -6 457
-15 463 -22 14 -127 9 -133 -6z"/>
    <path d="M16005 5495 c-32 -31 -34 -86 -5 -115 14 -14 33 -20 68 -20 67 0 92
20 92 73 0 48 -6 59 -37 76 -38 19 -91 14 -118 -14z"/>
    <path d="M6500 5464 c0 -83 3 -84 150 -84 l130 0 2 -447 3 -448 73 -3 72 -3 0
451 0 450 140 0 140 0 0 53 c0 29 -5 58 -12 65 -9 9 -102 12 -355 12 l-343 0
0 -46z"/>
    <path fill="#B11289" d="M992 5439 c-80 -14 -190 -63 -254 -114 -278 -218 -303 -624 -54 -870
120 -119 242 -169 411 -169 153 -1 277 47 398 153 55 49 122 157 153 246 81
240 -14 519 -224 659 -122 81 -295 119 -430 95z m250 -241 c79 -37 142 -98
181 -177 29 -59 32 -74 32 -156 0 -78 -4 -98 -28 -151 -34 -73 -101 -142 -177
-181 -49 -25 -65 -28 -155 -28 -89 0 -106 3 -157 28 -74 36 -139 101 -175 175
-38 78 -45 201 -15 280 39 102 127 189 225 224 77 27 194 21 269 -14z"/>
    <path d="M8281 5237 c-51 -20 -109 -73 -136 -126 -35 -70 -48 -165 -42 -300 9
-226 79 -318 259 -343 73 -10 216 2 277 23 27 10 31 15 31 50 0 52 -16 58
-120 47 -100 -10 -203 3 -240 30 -32 23 -57 74 -65 135 l-7 47 216 0 c197 0
217 2 224 18 4 9 7 69 7 132 0 108 -2 119 -30 175 -23 47 -41 66 -79 90 -45
28 -57 30 -155 32 -67 2 -118 -2 -140 -10z m210 -113 c37 -19 54 -58 64 -146
l7 -68 -161 0 c-182 0 -170 -8 -151 89 12 63 42 108 84 127 42 18 120 17 157
-2z"/>
    <path d="M9258 5235 c-63 -20 -112 -70 -127 -128 -24 -97 -8 -169 48 -220 38
-34 63 -44 213 -88 83 -23 117 -47 119 -82 3 -50 -4 -73 -27 -97 -24 -25 -26
-25 -189 -24 l-165 1 0 -38 c0 -21 7 -44 15 -53 22 -22 118 -39 225 -39 151
-1 221 30 265 117 42 84 30 202 -27 263 -24 26 -86 51 -206 83 -109 29 -132
48 -132 106 0 84 43 101 232 91 l118 -7 0 46 c0 43 -2 46 -37 61 -55 23 -262
28 -325 8z"/>
    <path d="M9982 5235 c-104 -32 -164 -124 -183 -282 -12 -103 -1 -235 27 -315
38 -112 131 -170 274 -172 105 -1 167 16 220 61 73 63 110 173 110 333 0 273
-96 391 -318 389 -48 0 -106 -6 -130 -14z m198 -111 c23 -9 48 -29 59 -48 29
-47 45 -156 38 -268 -10 -162 -47 -217 -151 -226 -73 -6 -119 15 -148 70 -19
37 -23 61 -26 180 -4 154 10 228 51 266 45 42 112 52 177 26z"/>
    <path d="M11115 5245 c-5 -2 -36 -9 -67 -15 -57 -11 -58 -12 -58 -45 0 -67 -2
-66 144 -59 160 8 208 -2 236 -49 13 -20 20 -50 20 -79 l0 -48 -87 0 c-189 0
-285 -35 -330 -119 -19 -36 -23 -59 -23 -125 1 -167 79 -243 243 -234 74 3
138 28 183 70 l22 19 9 -38 9 -38 63 -3 63 -3 -4 298 c-3 261 -6 303 -22 340
-40 95 -126 134 -290 132 -56 0 -105 -2 -111 -4z m275 -499 l0 -94 -49 -32
c-96 -61 -216 -49 -246 24 -19 45 -19 87 0 132 21 50 59 63 188 64 l107 0 0
-94z"/>
    <path d="M11900 5241 c-82 -25 -146 -89 -175 -174 -11 -32 -19 -97 -22 -173
-10 -220 35 -340 150 -398 54 -27 67 -30 155 -29 53 1 117 8 142 15 l45 14 0
49 0 50 -120 0 c-142 0 -164 10 -198 83 -19 41 -22 64 -22 187 0 126 3 144 23
182 37 70 58 78 199 77 l123 -1 0 36 c0 49 -9 60 -65 76 -50 16 -192 19 -235
6z"/>
    <path d="M12484 5234 c-57 -20 -119 -86 -146 -154 -19 -48 -22 -74 -23 -215 0
-178 8 -217 58 -291 59 -89 184 -126 356 -105 130 16 151 25 151 66 0 40 -23
67 -53 61 -59 -12 -168 -15 -222 -6 -96 16 -138 60 -151 158 l-7 52 217 0
c197 0 217 2 224 18 4 9 7 69 7 132 0 105 -2 120 -28 171 -29 60 -78 102 -138
119 -50 15 -198 11 -245 -6z m215 -109 c37 -19 61 -79 61 -155 l0 -60 -156 0
-157 0 7 58 c14 116 67 172 163 172 30 0 67 -7 82 -15z"/>
    <path d="M14309 5236 c-128 -45 -180 -155 -180 -381 -1 -167 21 -245 85 -310
62 -62 123 -80 261 -78 61 1 133 8 160 16 50 13 50 13 53 59 2 30 -1 47 -10
50 -7 3 -51 1 -98 -4 -207 -20 -291 24 -307 162 l-6 50 216 0 217 0 7 28 c15
51 8 214 -10 268 -21 61 -76 118 -136 139 -53 18 -201 19 -252 1z m220 -122
c35 -29 51 -76 51 -151 l0 -53 -156 0 -157 0 6 60 c10 112 67 170 168 170 47
0 63 -5 88 -26z"/>
    <path d="M15005 5245 c-5 -1 -36 -8 -68 -15 l-58 -12 3 -46 3 -47 145 3 c171
3 207 -6 232 -58 10 -19 18 -53 18 -76 l0 -41 -127 -6 c-71 -3 -144 -11 -164
-17 -101 -29 -154 -107 -153 -225 2 -156 79 -234 230 -235 59 0 81 5 131 30
34 17 67 38 74 46 11 14 14 11 24 -23 l11 -38 63 -3 63 -3 -4 298 c-3 278 -5
301 -24 344 -43 92 -127 129 -288 128 -56 0 -105 -2 -111 -4z m275 -499 l0
-93 -37 -25 c-75 -49 -145 -60 -208 -34 -41 18 -65 61 -65 118 0 100 45 128
203 128 l107 0 0 -94z"/>
    <path d="M16595 5235 c-21 -8 -58 -28 -82 -44 l-43 -30 -6 27 c-11 44 -23 52
-80 52 l-54 0 2 -377 3 -378 73 -3 72 -3 0 289 0 289 39 26 c101 67 222 55
250 -25 7 -19 11 -132 11 -292 0 -191 3 -265 12 -274 7 -7 39 -12 75 -12 l63
0 0 288 c0 308 -5 349 -50 412 -33 47 -91 70 -175 69 -38 0 -88 -6 -110 -14z"/>
    <path d="M17365 5243 c-119 -16 -197 -66 -234 -152 -45 -106 -52 -299 -14
-421 25 -82 91 -144 168 -160 72 -15 132 -8 203 25 l54 25 -4 -81 c-3 -73 -6
-83 -30 -104 -36 -31 -95 -39 -240 -32 l-118 5 0 -44 c0 -42 2 -46 38 -61 24
-11 80 -18 163 -21 182 -7 259 23 312 122 21 40 22 51 24 406 l3 365 25 3 c22
3 25 8 25 48 0 38 -4 46 -25 54 -53 20 -266 34 -350 23z m175 -346 l0 -233
-45 -22 c-29 -14 -64 -22 -96 -22 -114 0 -152 59 -153 235 -1 127 14 192 54
230 36 34 69 43 163 44 l77 1 0 -233z"/>
    <path d="M16002 4863 l3 -378 73 -3 72 -3 0 365 c0 420 6 396 -91 396 l-59 0
2 -377z"/>
    <path fill="#B11289" d="M3767 4764 c-525 -81 -1036 -409 -1234 -789 -51 -99 -66 -151 -98
-335 -47 -271 -82 -390 -133 -442 -58 -62 -100 -39 -647 334 -245 167 -413
257 -593 317 -132 44 -196 55 -317 55 -176 0 -286 -43 -389 -154 -168 -182
-191 -463 -69 -834 139 -419 462 -879 964 -1371 330 -323 585 -499 824 -571
120 -35 288 -44 366 -19 156 49 262 188 305 396 18 85 24 275 14 413 l-5 68
90 23 c159 40 282 101 309 154 28 54 29 102 4 150 -30 58 -65 83 -126 89 -41
4 -62 -2 -128 -31 -69 -31 -194 -71 -201 -64 -1 2 -25 102 -53 222 -27 121
-55 233 -62 248 -6 16 -26 39 -44 53 -90 69 -224 25 -253 -83 -12 -45 -10 -57
52 -323 19 -80 33 -147 30 -150 -3 -3 -96 -5 -207 -5 l-202 0 -38 -29 c-92
-70 -86 -196 12 -263 39 -26 167 -37 365 -31 l128 3 6 -25 c4 -14 7 -90 7
-170 0 -170 -18 -251 -65 -296 -24 -23 -40 -29 -93 -32 -191 -12 -472 166
-840 532 -378 376 -662 757 -800 1071 -115 264 -144 495 -78 624 36 69 124 98
244 81 178 -25 358 -114 690 -338 514 -347 581 -382 744 -390 131 -6 180 12
264 97 123 124 182 292 261 735 55 315 474 638 971 748 84 18 132 22 258 22
136 0 165 -4 237 -25 203 -63 328 -198 383 -413 68 -269 43 -572 -78 -933
-237 -709 -837 -1588 -1778 -2604 -108 -117 -124 -142 -124 -199 0 -58 26
-108 70 -138 29 -20 45 -23 95 -20 39 2 69 10 85 23 28 21 267 282 437 475
1277 1459 1820 2629 1608 3466 -98 385 -341 612 -729 679 -108 18 -318 18
-439 -1z"/>
    <path d="M8520 3656 l0 -165 -37 17 c-27 11 -65 16 -128 16 -144 -1 -217 -48
-266 -171 -21 -52 -23 -74 -23 -223 0 -150 2 -171 23 -224 13 -32 39 -76 58
-97 74 -82 218 -89 329 -15 l53 36 9 -33 c8 -31 10 -32 70 -35 l62 -3 -2 528
-3 528 -72 3 -73 3 0 -165z m-37 -257 l37 -10 0 -228 0 -228 -41 -29 c-33 -23
-55 -29 -108 -32 -57 -3 -70 -1 -95 19 -44 35 -58 81 -64 209 -7 176 22 272
92 300 30 12 134 12 179 -1z"/>
    <path d="M17690 3656 c0 -29 -3 -74 -6 -100 l-7 -46 -43 0 -44 0 0 -50 c0 -54
15 -70 64 -70 l25 0 3 -267 c3 -258 4 -269 26 -304 32 -52 81 -73 172 -73 41
-1 88 3 103 7 26 7 28 11 25 55 l-3 47 -73 6 c-40 3 -78 11 -85 18 -9 9 -13
80 -15 261 l-3 250 91 0 91 0 -3 58 -3 57 -87 3 -88 3 0 93 c0 107 1 106 -86
106 l-54 0 0 -54z"/>
    <path d="M6672 3516 c-102 -20 -102 -20 -102 -65 0 -54 15 -60 120 -49 123 14
204 3 243 -31 26 -24 31 -36 35 -90 l4 -61 -119 0 c-238 0 -323 -62 -323 -237
0 -107 29 -170 97 -210 42 -24 58 -28 128 -28 82 1 132 18 195 67 l24 19 12
-33 c10 -32 12 -33 72 -36 l62 -3 0 264 c0 145 -5 288 -10 318 -24 124 -105
180 -268 185 -55 2 -129 -3 -170 -10z m298 -489 c0 -105 -2 -108 -77 -146 -29
-14 -61 -21 -102 -21 -53 0 -65 4 -93 29 -30 27 -33 33 -33 94 0 56 4 69 24
91 33 35 68 44 184 45 l97 1 0 -93z"/>
    <path d="M7605 3523 c-55 -12 -90 -28 -130 -59 l-45 -34 0 28 c0 40 -17 52
-77 52 l-53 0 0 -375 0 -375 75 0 75 0 0 290 0 289 46 27 c55 32 138 43 184
24 60 -25 64 -46 70 -350 l5 -275 73 -3 74 -3 -5 298 c-4 321 -7 345 -58 407
-44 52 -147 79 -234 59z"/>
    <path d="M9322 3512 c-59 -22 -115 -69 -141 -122 -59 -116 -64 -365 -10 -490
25 -59 90 -122 145 -141 51 -18 261 -19 332 0 l53 13 -3 47 -3 46 -150 0
c-133 0 -154 2 -185 20 -45 27 -70 72 -77 140 l-6 55 216 0 217 0 7 28 c11 41
8 201 -5 248 -18 62 -64 118 -118 145 -67 32 -197 37 -272 11z m208 -112 c32
-17 53 -70 58 -147 l5 -73 -157 0 -156 0 0 43 c0 92 42 168 103 187 37 11 118
6 147 -10z"/>
    <path d="M10195 3526 c-5 -2 -22 -7 -36 -10 -15 -3 -50 -22 -78 -41 -52 -36
-56 -36 -63 10 -3 17 -12 20 -66 23 l-62 3 2 -373 3 -373 73 -3 72 -3 0 287
c0 319 -6 293 72 334 42 23 113 26 153 8 52 -23 55 -44 55 -332 0 -145 3 -271
6 -280 5 -12 21 -16 75 -16 l69 0 2 287 3 287 42 30 c48 33 143 47 182 27 53
-29 56 -44 61 -346 l5 -280 73 -3 73 -3 -3 303 c-3 267 -5 308 -22 345 -37 87
-120 130 -229 120 -65 -6 -151 -43 -186 -81 l-24 -25 -21 32 c-12 18 -38 40
-59 51 -35 17 -148 31 -172 22z"/>
    <path d="M12044 3512 c-73 -26 -101 -47 -134 -99 -45 -70 -63 -172 -57 -311 5
-135 24 -203 70 -264 48 -63 111 -91 217 -96 123 -6 190 15 251 78 71 73 84
121 84 315 0 135 -3 168 -20 213 -25 69 -73 124 -131 153 -65 31 -208 37 -280
11z m207 -118 c52 -26 73 -89 77 -230 5 -145 -8 -218 -47 -264 -26 -32 -33
-34 -98 -38 -133 -8 -172 41 -181 229 -8 176 23 281 92 309 35 14 125 11 157
-6z"/>
    <path d="M13845 3512 c-77 -26 -111 -56 -144 -125 -75 -153 -62 -438 24 -551
15 -20 52 -48 83 -63 53 -26 66 -28 182 -28 72 0 147 6 178 14 l53 13 -3 47
-3 46 -150 0 c-163 0 -195 9 -236 65 -18 24 -41 134 -31 145 3 3 101 5 218 5
184 0 213 2 218 16 12 33 6 221 -10 273 -20 70 -75 125 -145 145 -69 21 -171
20 -234 -2z m205 -112 c34 -18 52 -68 54 -144 l1 -71 -155 0 -155 0 3 50 c6
90 47 156 108 175 34 11 115 5 144 -10z"/>
    <path d="M15195 3513 c-28 -10 -67 -31 -87 -47 -39 -29 -43 -28 -50 19 -3 17
-12 20 -66 23 l-62 3 2 -373 3 -373 73 -3 72 -3 0 287 c0 319 -6 293 72 334
42 23 113 26 153 8 52 -23 55 -44 55 -332 0 -145 3 -271 6 -280 5 -12 21 -16
75 -16 l69 0 2 287 3 287 42 30 c48 33 143 47 182 27 53 -29 56 -44 61 -346
l5 -280 73 -3 73 -3 -3 303 c-4 338 -7 359 -74 417 -83 74 -236 66 -341 -17
l-48 -38 -20 30 c-43 66 -173 94 -270 59z"/>
    <path d="M16308 3517 c-142 -41 -205 -176 -195 -422 7 -185 50 -274 156 -324
52 -24 65 -26 186 -25 84 1 146 6 175 15 44 15 45 15 45 59 l0 45 -125 -4
c-220 -6 -272 25 -295 177 l-7 42 220 0 220 0 6 31 c11 58 6 195 -9 247 -19
62 -63 115 -119 144 -51 26 -189 34 -258 15z m201 -119 c33 -20 51 -71 54
-145 l2 -68 -155 0 -155 0 3 50 c6 129 69 190 184 180 25 -2 56 -10 67 -17z"/>
    <path d="M17132 3511 c-29 -10 -70 -32 -92 -50 -37 -30 -40 -31 -40 -11 0 47
-17 60 -80 60 l-60 0 0 -359 c0 -198 3 -366 6 -375 5 -12 21 -16 75 -16 l69 0
2 287 3 287 48 30 c56 34 139 46 187 26 60 -25 64 -46 70 -350 l5 -275 73 -3
74 -3 -4 298 c-3 297 -3 298 -29 354 -15 31 -39 65 -55 76 -63 45 -164 55
-252 24z"/>
    <path d="M11180 3515 c-8 -2 -41 -7 -73 -10 l-58 -7 3 -51 c3 -45 6 -52 26
-55 l22 -3 0 -440 0 -439 23 -5 c13 -4 46 -5 73 -3 l49 3 3 141 3 142 49 -19
c58 -22 162 -25 223 -7 59 18 120 81 148 153 21 53 23 77 24 215 0 124 -4 165
-18 206 -24 70 -75 126 -139 155 -46 20 -71 23 -198 25 -80 2 -152 1 -160 -1z
m275 -129 c73 -31 100 -114 93 -286 -8 -176 -48 -233 -168 -233 -30 0 -72 5
-92 12 l-38 13 0 253 0 254 23 4 c35 8 147 -3 182 -17z"/>
    <path d="M14680 3505 c-25 -8 -64 -30 -87 -50 -23 -19 -44 -35 -47 -35 -3 0
-6 15 -6 33 0 46 -15 57 -77 57 l-53 0 2 -372 3 -373 73 -3 72 -3 0 274 0 274
38 27 c48 33 92 46 154 46 l48 0 0 60 c0 82 -24 94 -120 65z"/>
    <path d="M12600 3487 c0 -104 92 -487 160 -671 l21 -56 73 0 73 0 68 250 c38
138 72 247 76 243 4 -5 35 -111 70 -238 34 -126 66 -236 72 -242 6 -8 35 -13
77 -13 l68 0 32 87 c63 174 140 516 140 620 l0 43 -69 0 -68 0 -7 -67 c-18
-171 -91 -522 -106 -506 -4 4 -36 114 -70 243 -35 129 -67 243 -72 253 -7 13
-22 17 -72 17 l-63 0 -57 -212 c-32 -117 -65 -238 -73 -268 -16 -54 -16 -55
-25 -25 -27 92 -62 269 -82 405 l-22 155 -72 3 c-70 3 -72 2 -72 -21z"/>
    <path d="M6565 2045 c-31 -30 -32 -73 -4 -109 17 -22 28 -26 69 -26 67 0 95
24 94 81 -2 55 -29 79 -91 79 -33 0 -50 -6 -68 -25z"/>
    <path d="M7680 2050 c-13 -13 -20 -33 -20 -60 0 -57 26 -80 90 -80 64 0 90 23
90 80 0 57 -26 80 -90 80 -37 0 -55 -5 -70 -20z"/>
    <path d="M8540 2050 c-29 -29 -28 -103 2 -124 33 -23 113 -21 138 4 29 29 27
84 -5 115 -32 33 -105 35 -135 5z"/>
    <path d="M10145 2058 c-29 -16 -35 -28 -35 -70 0 -55 27 -78 90 -78 64 0 90
23 90 80 0 54 -27 80 -82 80 -24 0 -52 -6 -63 -12z"/>
    <path d="M8060 1885 l0 -95 -45 0 -46 0 3 -57 3 -58 37 -3 37 -3 3 -262 c3
-241 5 -265 24 -302 37 -72 133 -101 267 -79 l38 7 -3 51 -3 51 -72 5 c-40 3
-78 11 -85 18 -10 10 -14 75 -16 262 l-3 250 91 0 91 0 -3 58 -3 57 -87 3 -88
3 0 94 0 95 -70 0 -70 0 0 -95z"/>
    <path d="M9656 1949 c-3 -17 -6 -60 -6 -95 l0 -64 -45 0 -46 0 3 -57 3 -58 42
-3 42 -3 3 -274 c3 -258 4 -275 24 -301 40 -54 68 -67 151 -72 43 -2 94 0 113
5 31 8 35 13 38 47 5 54 -10 66 -83 66 -98 0 -95 -8 -95 283 l0 247 90 0 90 0
0 48 c0 26 -5 53 -12 60 -7 7 -43 12 -90 12 l-78 0 0 79 c0 111 0 111 -75 111
-62 0 -63 0 -69 -31z"/>
    <path d="M9055 1799 c-44 -4 -101 -12 -127 -19 -46 -12 -48 -14 -48 -49 0 -20
5 -42 11 -48 7 -7 57 -9 152 -6 124 4 146 2 177 -14 43 -22 60 -54 60 -114 l0
-46 -133 -5 c-116 -4 -139 -8 -189 -30 -82 -38 -110 -84 -116 -192 -4 -69 -1
-90 18 -134 38 -89 97 -122 215 -122 64 0 125 22 182 66 l32 25 7 -28 c11 -45
23 -53 80 -53 l54 0 0 275 c0 163 -4 295 -11 326 -13 59 -59 117 -115 144 -46
22 -150 32 -249 24z m225 -503 l0 -93 -39 -26 c-82 -54 -186 -59 -235 -11 -32
33 -44 101 -24 152 21 57 60 72 191 72 l107 0 0 -94z"/>
    <path d="M11369 1800 c-161 -29 -233 -147 -233 -385 0 -67 5 -144 13 -175 28
-116 95 -188 195 -211 64 -14 276 -7 324 11 29 11 32 15 32 56 0 28 -5 45 -12
45 -7 1 -72 1 -145 -1 -117 -2 -137 0 -175 19 -53 25 -78 65 -85 136 l-6 55
216 0 c214 0 216 0 223 22 12 38 9 200 -5 255 -16 63 -74 134 -128 156 -49 19
-155 28 -214 17z m171 -137 c34 -31 49 -79 50 -155 l0 -48 -156 0 -156 0 4 58
c9 119 59 172 165 172 54 0 67 -4 93 -27z"/>
    <path d="M7140 1780 c-24 -12 -59 -32 -76 -45 l-32 -24 -6 33 c-8 40 -20 46
-87 46 l-49 0 0 -368 c0 -273 3 -371 12 -380 7 -7 39 -12 75 -12 l63 0 0 289
0 289 49 32 c90 57 205 47 238 -20 9 -18 13 -99 13 -296 0 -196 3 -273 12
-282 7 -7 39 -12 75 -12 l63 0 0 293 c0 302 -4 341 -43 397 -42 63 -69 75
-170 78 -76 2 -100 -1 -137 -18z"/>
    <path d="M6560 1416 c0 -424 -9 -386 91 -386 l59 0 0 368 c0 273 -3 371 -12
380 -7 7 -39 12 -75 12 l-63 0 0 -374z"/>
    <path d="M7682 1413 l3 -378 70 0 70 0 3 358 c1 235 -1 365 -8 377 -9 17 -21
20 -75 20 l-65 0 2 -377z"/>
    <path d="M8530 1422 c0 -273 3 -371 12 -380 7 -7 39 -12 75 -12 l63 0 -2 378
-3 377 -72 3 -73 3 0 -369z"/>
    <path d="M10132 1413 l3 -378 70 0 70 0 3 358 c1 235 -1 365 -8 377 -9 17 -21
20 -75 20 l-65 0 2 -377z"/>
    <path d="M10415 1738 c21 -156 111 -442 195 -625 l39 -84 78 3 78 3 47 105
c90 200 184 528 176 611 l-3 34 -65 3 -66 3 -31 -158 c-31 -154 -85 -348 -119
-428 l-17 -40 -24 55 c-36 79 -88 268 -114 406 -31 173 -25 164 -110 164 l-71
0 7 -52z"/>
  </g>
</svg>