<?xml version="1.0" encoding="UTF-8"?>
<!DOCTYPE svg PUBLIC "-//W3C//DTD SVG 1.1//EN" "http://www.w3.org/Graphics/SVG/1.1/DTD/svg11.dtd">
<svg xmlns="http://www.w3.org/2000/svg" version="1.1" width="5323px" height="7063px" style="shape-rendering:geometricPrecision; text-rendering:geometricPrecision; image-rendering:optimizeQuality; fill-rule:evenodd; clip-rule:evenodd" xmlns:xlink="http://www.w3.org/1999/xlink">
  <g>
    <path style="opacity:0.998" fill="#B11289" d="M 3379.5,-0.5 C 3405.5,-0.5 3431.5,-0.5 3457.5,-0.5C 3686.01,14.0219 3878.51,104.022 4035,269.5C 4188.55,440.734 4261.88,642.068 4255,873.5C 4241.81,1100 4153.97,1291.5 3991.5,1448C 3816.2,1608.01 3609.2,1683.01 3370.5,1673C 3150.95,1657.89 2964.78,1572.06 2812,1415.5C 2648.14,1238.59 2571.47,1028.92 2582,786.5C 2599.49,553.692 2694.66,359.858 2867.5,205C 3014.55,79.1185 3185.21,10.6185 3379.5,-0.5 Z M 3391.5,312.5 C 3559.85,307.965 3700.35,367.632 3813,491.5C 3917.33,615.431 3958.33,758.097 3936,919.5C 3906.49,1082.23 3821.32,1206.06 3680.5,1291C 3548.1,1364.45 3409.1,1380.12 3263.5,1338C 3109.19,1287.02 2999.36,1187.19 2934,1038.5C 2881.96,908.814 2880.3,778.481 2929,647.5C 2990.45,497.713 3097.29,395.213 3249.5,340C 3295.78,324.679 3343.11,315.512 3391.5,312.5 Z"/>
  </g>
  <g>
    <path style="opacity:0.997" fill="#B11289" d="M 965.5,1114.5 C 1145.37,1111.27 1301.37,1169.77 1433.5,1290C 1575.79,1427.85 1644.29,1596.35 1639,1795.5C 1625.51,2002.02 1537.01,2167.52 1373.5,2292C 1213.45,2405.01 1037.12,2441.68 844.5,2402C 688.238,2364.84 561.738,2282.67 465,2155.5C 351.292,1996.66 313.292,1820.99 351,1628.5C 394.414,1443.02 497.247,1301.18 659.5,1203C 754.337,1148.63 856.337,1119.13 965.5,1114.5 Z M 966.5,1358.5 C 1112.54,1355.45 1229.71,1411.45 1318,1526.5C 1391.14,1631.63 1412.47,1746.63 1382,1871.5C 1347.78,1989.83 1275.95,2076.99 1166.5,2133C 1062.37,2181.17 956.038,2186.5 847.5,2149C 729.027,2102.53 647.527,2019.69 603,1900.5C 564.174,1781.43 575.507,1667.43 637,1558.5C 713.105,1437.16 822.938,1370.49 966.5,1358.5 Z"/>
  </g>
  <g>
    <path style="opacity:0.998" fill="#B11289" d="M 5322.5,2993.5 C 5322.5,3031.17 5322.5,3068.83 5322.5,3106.5C 5316.22,3270.6 5293.72,3432.6 5255,3592.5C 5217.24,3747.46 5169.24,3899.12 5111,4047.5C 5026.53,4259.45 4928.86,4465.11 4818,4664.5C 4681.84,4906.92 4534.17,5141.59 4375,5368.5C 4191.92,5627.95 3999.25,5880.28 3797,6125.5C 3620.29,6339.09 3438.63,6548.76 3252,6754.5C 3176,6837.17 3100,6919.83 3024,7002.5C 2990.73,7037.89 2949.89,7057.89 2901.5,7062.5C 2892.5,7062.5 2883.5,7062.5 2874.5,7062.5C 2800.04,7053.86 2747.88,7015.19 2718,6946.5C 2694.41,6877.33 2705.75,6814.66 2752,6758.5C 2977.68,6518.19 3196.68,6272.52 3409,6021.5C 3583.14,5815.06 3750.8,5603.73 3912,5387.5C 4061.83,5185.55 4203.49,4977.89 4337,4764.5C 4448.23,4585.1 4550.56,4400.1 4644,4209.5C 4725.8,4041.56 4795.13,3868.56 4852,3690.5C 4901.84,3534.29 4935.17,3374.63 4952,3211.5C 4967.08,3062.76 4960.08,2915.09 4931,2768.5C 4917.49,2701.77 4897.49,2637.1 4871,2574.5C 4798.12,2417.97 4679.29,2313.47 4514.5,2261C 4432.43,2235.65 4348.43,2221.99 4262.5,2220C 4135.67,2217.54 4010.67,2231.54 3887.5,2262C 3633.85,2324.68 3404.18,2435.01 3198.5,2593C 3113.51,2659.32 3038.68,2735.49 2974,2821.5C 2931.32,2879.86 2898.32,2943.52 2875,3012.5C 2869.06,3032.26 2864.06,3052.26 2860,3072.5C 2840.85,3211.06 2813.85,3348.06 2779,3483.5C 2758.29,3562.31 2731.62,3638.98 2699,3713.5C 2673.12,3772.27 2640.46,3826.61 2601,3876.5C 2513.69,3982.53 2401.19,4029.36 2263.5,4017C 2204.87,4012.51 2148.2,3999.51 2093.5,3978C 2021.89,3949.37 1953.56,3914.7 1888.5,3874C 1817.81,3830.3 1748.48,3784.63 1680.5,3737C 1561.87,3652.71 1441.87,3570.38 1320.5,3490C 1214.19,3419.32 1103.19,3355.98 987.5,3300C 912.9,3264.37 835.567,3236.04 755.5,3215C 694.491,3198.81 632.491,3192.15 569.5,3195C 531.03,3196.95 495.03,3207.28 461.5,3226C 431.43,3245.41 409.263,3271.58 395,3304.5C 378.255,3344.48 368.588,3386.15 366,3429.5C 361.686,3500.09 366.353,3570.09 380,3639.5C 399.252,3736.92 427.585,3831.59 465,3923.5C 534.432,4091.41 620.098,4249.75 722,4398.5C 820.116,4539.31 925.116,4674.98 1037,4805.5C 1150.69,4937.88 1269.52,5066.04 1393.5,5190C 1499.02,5294.55 1609.02,5393.55 1723.5,5487C 1794.43,5544.27 1868.43,5597.27 1945.5,5646C 2004.65,5683.07 2066.98,5714.07 2132.5,5739C 2174.35,5754.51 2217.35,5765.51 2261.5,5772C 2296.47,5777.21 2331.13,5775.54 2365.5,5767C 2408.38,5753.46 2438.54,5725.96 2456,5684.5C 2474.22,5634.73 2485.56,5583.4 2490,5530.5C 2496.66,5440.43 2495.66,5350.43 2487,5260.5C 2484.76,5236.8 2482.26,5213.13 2479.5,5189.5C 2326.82,5195.15 2174.15,5194.65 2021.5,5188C 1940.67,5184.12 1884.17,5145.28 1852,5071.5C 1829.71,5006.94 1838.71,4947.28 1879,4892.5C 1916.41,4847.8 1964.41,4824.8 2023,4823.5C 2154.45,4829.69 2285.95,4831.02 2417.5,4827.5C 2408.99,4787.11 2400.16,4746.78 2391,4706.5C 2365.82,4601.28 2341.16,4495.95 2317,4390.5C 2302.14,4316.08 2322.97,4253.91 2379.5,4204C 2431.81,4164.67 2489.48,4154.33 2552.5,4173C 2616.58,4196.41 2656.75,4241.25 2673,4307.5C 2677.36,4332.3 2682.36,4356.96 2688,4381.5C 2709.98,4473.43 2731.65,4565.43 2753,4657.5C 2762.87,4701.03 2772.04,4744.7 2780.5,4788.5C 2851.82,4775.23 2920.82,4754.39 2987.5,4726C 3010.94,4715.12 3033.94,4703.45 3056.5,4691C 3125.77,4663.71 3189.77,4672.71 3248.5,4718C 3304.54,4769.79 3323.7,4832.95 3306,4907.5C 3293.08,4949.88 3268.58,4983.71 3232.5,5009C 3156.79,5052.85 3076.79,5086.85 2992.5,5111C 2942.13,5125.84 2891.13,5138.01 2839.5,5147.5C 2856,5277.75 2860.5,5408.42 2853,5539.5C 2848.3,5617.03 2834.97,5693.03 2813,5767.5C 2788.1,5849.98 2749.1,5924.65 2696,5991.5C 2613.09,6088.2 2507.59,6140.04 2379.5,6147C 2304.52,6150.57 2230.52,6143.57 2157.5,6126C 2031.75,6096.87 1913.41,6049.53 1802.5,5984C 1692.59,5918.4 1587.92,5845.4 1488.5,5765C 1338.77,5642.31 1195.93,5511.14 1060,5371.5C 851.191,5156.79 658.525,4929.46 482,4689.5C 361.551,4525.73 258.551,4350.73 173,4164.5C 115.357,4038.91 70.0234,3908.91 37,3774.5C 15.7176,3685.22 3.21762,3594.89 -0.5,3503.5C -0.5,3484.83 -0.5,3466.17 -0.5,3447.5C 1.56659,3374.88 12.7333,3303.55 33,3233.5C 68.4676,3112.63 135.968,3014.13 235.5,2938C 325.622,2874.73 425.956,2839.4 536.5,2832C 619.596,2826.34 701.929,2832.01 783.5,2849C 887.15,2870.77 987.484,2902.77 1084.5,2945C 1221.78,3005.12 1352.78,3075.79 1477.5,3157C 1534.77,3194.61 1591.77,3232.61 1648.5,3271C 1771.01,3357.17 1894.34,3442.17 2018.5,3526C 2064.51,3556.02 2111.85,3584.02 2160.5,3610C 2189.14,3624.55 2218.8,3636.55 2249.5,3646C 2261.01,3649 2272.68,3651.17 2284.5,3652.5C 2302.6,3651.11 2318.27,3644.28 2331.5,3632C 2342.91,3620.34 2352.74,3607.5 2361,3593.5C 2380.8,3556.89 2396.47,3518.56 2408,3478.5C 2427.79,3410.67 2444.12,3342 2457,3272.5C 2472.73,3188.12 2486.73,3103.45 2499,3018.5C 2517.08,2919.02 2550.41,2825.02 2599,2736.5C 2657.3,2632.5 2728.3,2537.83 2812,2452.5C 2937.87,2326.21 3078.37,2219.71 3233.5,2133C 3442.7,2015.04 3665.36,1933.04 3901.5,1887C 4053,1857.52 4205.67,1848.86 4359.5,1861C 4495.8,1871.99 4626.14,1905.66 4750.5,1962C 4977.3,2070.13 5135.46,2241.63 5225,2476.5C 5276.84,2618.02 5307.84,2764.02 5318,2914.5C 5319.74,2940.98 5321.24,2967.31 5322.5,2993.5 Z"/>
  </g>
</svg>